<svg width="32" height="32" viewBox="0 0 32 32" fill="none" xmlns="http://www.w3.org/2000/svg">
<path d="M30.761 13.0517H29.5484V12.9892H16.0001V19.0107H24.5077C23.2665 22.516 19.9313 25.0322 16.0001 25.0322C11.012 25.0322 6.96779 20.988 6.96779 15.9999C6.96779 11.0119 11.012 6.96767 16.0001 6.96767C18.3025 6.96767 20.3973 7.83627 21.9922 9.25509L26.2502 4.99714C23.5616 2.49144 19.9652 0.946167 16.0001 0.946167C7.68661 0.946167 0.946289 7.68649 0.946289 15.9999C0.946289 24.3134 7.68661 31.0537 16.0001 31.0537C24.3135 31.0537 31.0538 24.3134 31.0538 15.9999C31.0538 14.9906 30.9499 14.0053 30.761 13.0517Z" fill="#FFC107"/>
<path d="M2.68164 8.99316L7.62755 12.6204C8.96583 9.30703 12.2069 6.96767 15.9997 6.96767C18.3022 6.96767 20.3969 7.83627 21.9919 9.25509L26.2498 4.99713C23.5612 2.49144 19.9649 0.946167 15.9997 0.946167C10.2176 0.946167 5.20315 4.21058 2.68164 8.99316Z" fill="#FF3D00"/>
<path d="M15.9998 31.0538C19.8881 31.0538 23.4213 29.5657 26.0926 27.1458L21.4334 23.2032C19.922 24.3481 18.0433 25.0323 15.9998 25.0323C12.0843 25.0323 8.75965 22.5356 7.50718 19.0514L2.59814 22.8336C5.08954 27.7088 10.1491 31.0538 15.9998 31.0538Z" fill="#4CAF50"/>
<path d="M30.761 13.0517H29.5484V12.9893H16V19.0108H24.5076C23.9115 20.6945 22.8284 22.1465 21.4314 23.204C21.4322 23.2032 21.4329 23.2032 21.4337 23.2025L26.0928 27.1451C25.7631 27.4446 31.0538 23.5269 31.0538 16C31.0538 14.9907 30.9499 14.0054 30.761 13.0517Z" fill="#1976D2"/>
</svg>
