<svg width="56" height="52" viewBox="0 0 56 52" fill="none" xmlns="http://www.w3.org/2000/svg">
<path d="M12.7041 45.5194V51.2314H16.6721V50.5914H13.4641V48.6154H16.4321V47.9754H13.4641V46.1594H16.6481V45.5194H12.7041ZM17.5947 45.5194V51.2314H18.3547V48.6154H20.9787V47.9754H18.3547V46.1594H21.3467V45.5194H17.5947ZM22.1885 45.5194V51.2314H22.9485V48.6154H25.5725V47.9754H22.9485V46.1594H25.9405V45.5194H22.1885ZM26.7822 45.5194V51.2314H30.7502V50.5914H27.5422V48.6154H30.5102V47.9754H27.5422V46.1594H30.7262V45.5194H26.7822ZM35.6888 47.2394H36.4488C36.4062 46.9354 36.3155 46.6687 36.1768 46.4394C36.0382 46.2047 35.8648 46.0101 35.6568 45.8554C35.4488 45.7007 35.2115 45.5834 34.9448 45.5034C34.6782 45.4234 34.3955 45.3834 34.0968 45.3834C33.6595 45.3834 33.2702 45.4634 32.9288 45.6234C32.5928 45.7781 32.3102 45.9914 32.0808 46.2634C31.8568 46.5354 31.6862 46.8554 31.5688 47.2234C31.4515 47.5861 31.3928 47.9754 31.3928 48.3914C31.3928 48.8074 31.4462 49.1967 31.5528 49.5594C31.6648 49.9221 31.8302 50.2367 32.0488 50.5034C32.2675 50.7701 32.5422 50.9807 32.8728 51.1354C33.2035 51.2847 33.5902 51.3594 34.0328 51.3594C34.7635 51.3594 35.3395 51.1594 35.7608 50.7594C36.1822 50.3594 36.4302 49.7994 36.5048 49.0794H35.7448C35.7288 49.3141 35.6808 49.5327 35.6008 49.7354C35.5208 49.9381 35.4088 50.1141 35.2648 50.2634C35.1262 50.4074 34.9582 50.5221 34.7608 50.6074C34.5688 50.6874 34.3475 50.7274 34.0968 50.7274C33.7555 50.7274 33.4622 50.6634 33.2168 50.5354C32.9715 50.4074 32.7688 50.2367 32.6088 50.0234C32.4542 49.8047 32.3395 49.5514 32.2648 49.2634C32.1902 48.9701 32.1528 48.6607 32.1528 48.3354C32.1528 48.0367 32.1902 47.7487 32.2648 47.4714C32.3395 47.1941 32.4542 46.9487 32.6088 46.7354C32.7688 46.5167 32.9688 46.3434 33.2088 46.2154C33.4542 46.0874 33.7475 46.0234 34.0888 46.0234C34.4888 46.0234 34.8328 46.1247 35.1208 46.3274C35.4142 46.5301 35.6035 46.8341 35.6888 47.2394ZM38.7423 46.1594V51.2314H39.5023V46.1594H41.4063V45.5194H36.8383V46.1594H38.7423ZM45.344 47.1914H46.064C46.0533 46.8767 45.992 46.6074 45.88 46.3834C45.7733 46.1541 45.624 45.9647 45.432 45.8154C45.2453 45.6661 45.0267 45.5567 44.776 45.4874C44.5253 45.4181 44.2533 45.3834 43.96 45.3834C43.6987 45.3834 43.4427 45.4181 43.192 45.4874C42.9467 45.5514 42.7253 45.6527 42.528 45.7914C42.336 45.9247 42.1813 46.0981 42.064 46.3114C41.9467 46.5194 41.888 46.7674 41.888 47.0554C41.888 47.3167 41.9387 47.5354 42.04 47.7114C42.1467 47.8821 42.2853 48.0234 42.456 48.1354C42.632 48.2421 42.8293 48.3301 43.048 48.3994C43.2667 48.4634 43.488 48.5221 43.712 48.5754C43.9413 48.6234 44.1653 48.6714 44.384 48.7194C44.6027 48.7674 44.7973 48.8314 44.968 48.9114C45.144 48.9861 45.2827 49.0847 45.384 49.2074C45.4907 49.3301 45.544 49.4901 45.544 49.6874C45.544 49.8954 45.5013 50.0661 45.416 50.1994C45.3307 50.3327 45.2187 50.4394 45.08 50.5194C44.9413 50.5941 44.784 50.6474 44.608 50.6794C44.4373 50.7114 44.2667 50.7274 44.096 50.7274C43.8827 50.7274 43.6747 50.7007 43.472 50.6474C43.2693 50.5941 43.0907 50.5114 42.936 50.3994C42.7867 50.2874 42.664 50.1461 42.568 49.9754C42.4773 49.7994 42.432 49.5914 42.432 49.3514H41.712C41.712 49.6981 41.7733 49.9994 41.896 50.2554C42.024 50.5061 42.1947 50.7141 42.408 50.8794C42.6267 51.0394 42.8773 51.1594 43.16 51.2394C43.448 51.3194 43.752 51.3594 44.072 51.3594C44.3333 51.3594 44.5947 51.3274 44.856 51.2634C45.1227 51.2047 45.3627 51.1087 45.576 50.9754C45.7893 50.8367 45.9627 50.6607 46.096 50.4474C46.2347 50.2287 46.304 49.9674 46.304 49.6634C46.304 49.3807 46.2507 49.1461 46.144 48.9594C46.0427 48.7727 45.904 48.6181 45.728 48.4954C45.5573 48.3727 45.3627 48.2767 45.144 48.2074C44.9253 48.1327 44.7013 48.0687 44.472 48.0154C44.248 47.9621 44.0267 47.9141 43.808 47.8714C43.5893 47.8234 43.392 47.7647 43.216 47.6954C43.0453 47.6261 42.9067 47.5381 42.8 47.4314C42.6987 47.3194 42.648 47.1754 42.648 46.9994C42.648 46.8127 42.6827 46.6581 42.752 46.5354C42.8267 46.4074 42.9227 46.3061 43.04 46.2314C43.1627 46.1567 43.3013 46.1034 43.456 46.0714C43.6107 46.0394 43.768 46.0234 43.928 46.0234C44.3227 46.0234 44.6453 46.1167 44.896 46.3034C45.152 46.4847 45.3013 46.7807 45.344 47.1914Z" fill="black"/>
<path d="M25.3896 0L28.9728 7.34118H35.4737H41.9747C50.3695 7.34118 50.779 20.8 41.9747 20.8H35.7297L47.1959 41.498H56.0003L47.0935 26.7137C59.1739 22.6353 59.3787 1.63137 42.5889 0H25.3896Z" fill="#3A3A3A"/>
<path d="M26.7207 26.6118H34.5013L42.0772 41.498H33.9894L26.7207 26.6118Z" fill="#D15642"/>
<path d="M28.0512 41.4981H0L10.4936 20.8L20.9872 0.10199L34.5009 26.6118H26.7203L20.9872 15.6L10.7495 36.4H25.287L28.0512 41.4981Z" fill="#010101"/>
</svg>
