<svg width="29" height="28" viewBox="0 0 29 28" fill="none" xmlns="http://www.w3.org/2000/svg">
<path d="M4.40332 3.5H6.73665L7.20332 5.83333M7.20332 5.83333H25.4033L20.7367 15.1667H9.06999M7.20332 5.83333L9.06999 15.1667M9.06999 15.1667L6.39482 17.8418C5.65982 18.5768 6.18015 19.8333 7.21965 19.8333H20.7367M20.7367 19.8333C20.1178 19.8333 19.5243 20.0792 19.0867 20.5168C18.6492 20.9543 18.4033 21.5478 18.4033 22.1667C18.4033 22.7855 18.6492 23.379 19.0867 23.8166C19.5243 24.2542 20.1178 24.5 20.7367 24.5C21.3555 24.5 21.949 24.2542 22.3866 23.8166C22.8242 23.379 23.07 22.7855 23.07 22.1667C23.07 21.5478 22.8242 20.9543 22.3866 20.5168C21.949 20.0792 21.3555 19.8333 20.7367 19.8333ZM11.4033 22.1667C11.4033 22.7855 11.1575 23.379 10.7199 23.8166C10.2823 24.2542 9.68883 24.5 9.06999 24.5C8.45115 24.5 7.85766 24.2542 7.42007 23.8166C6.98249 23.379 6.73665 22.7855 6.73665 22.1667C6.73665 21.5478 6.98249 20.9543 7.42007 20.5168C7.85766 20.0792 8.45115 19.8333 9.06999 19.8333C9.68883 19.8333 10.2823 20.0792 10.7199 20.5168C11.1575 20.9543 11.4033 21.5478 11.4033 22.1667Z" stroke="#3C3C3C" stroke-width="2" stroke-linecap="round" stroke-linejoin="round"/>
</svg>
