<svg width="29" height="29" viewBox="0 0 29 29" fill="none" xmlns="http://www.w3.org/2000/svg">
<path d="M4.40332 4.24194H6.73665L7.20332 6.57528M7.20332 6.57528H25.4033L20.7367 15.9086H9.06999M7.20332 6.57528L9.06999 15.9086M9.06999 15.9086L6.39482 18.5838C5.65982 19.3188 6.18015 20.5753 7.21965 20.5753H20.7367M20.7367 20.5753C20.1178 20.5753 19.5243 20.8211 19.0867 21.2587C18.6492 21.6963 18.4033 22.2898 18.4033 22.9086C18.4033 23.5274 18.6492 24.1209 19.0867 24.5585C19.5243 24.9961 20.1178 25.2419 20.7367 25.2419C21.3555 25.2419 21.949 24.9961 22.3866 24.5585C22.8242 24.1209 23.07 23.5274 23.07 22.9086C23.07 22.2898 22.8242 21.6963 22.3866 21.2587C21.949 20.8211 21.3555 20.5753 20.7367 20.5753ZM11.4033 22.9086C11.4033 23.5274 11.1575 24.1209 10.7199 24.5585C10.2823 24.9961 9.68883 25.2419 9.06999 25.2419C8.45115 25.2419 7.85766 24.9961 7.42007 24.5585C6.98249 24.1209 6.73665 23.5274 6.73665 22.9086C6.73665 22.2898 6.98249 21.6963 7.42007 21.2587C7.85766 20.8211 8.45115 20.5753 9.06999 20.5753C9.68883 20.5753 10.2823 20.8211 10.7199 21.2587C11.1575 21.6963 11.4033 22.2898 11.4033 22.9086Z" stroke="#3C3C3C" stroke-width="3" stroke-linecap="round" stroke-linejoin="round"/>
</svg>
