<svg width="30" height="24" viewBox="0 0 30 24" fill="none" xmlns="http://www.w3.org/2000/svg">
<path d="M28.125 11.375L25.5 14L22.875 11.375" stroke="#3C3C3C" stroke-width="2" stroke-linecap="round" stroke-linejoin="round"/>
<path d="M14.8275 9.82843C15.5776 9.07828 15.999 8.06087 15.999 7C15.999 5.93913 15.5776 4.92172 14.8275 4.17157C14.0773 3.42143 13.0599 3 11.999 3C10.9382 3 9.92074 3.42143 9.1706 4.17157C8.42045 4.92172 7.99902 5.93913 7.99902 7C7.99902 8.06087 8.42045 9.07828 9.1706 9.82843C9.92074 10.5786 10.9382 11 11.999 11C13.0599 11 14.0773 10.5786 14.8275 9.82843Z" stroke="black" stroke-width="2" stroke-linecap="round" stroke-linejoin="round"/>
<path d="M7.04928 16.0503C8.36203 14.7375 10.1425 14 11.999 14C13.8555 14 15.636 14.7375 16.9488 16.0503C18.2615 17.363 18.999 19.1435 18.999 21H4.99902C4.99902 19.1435 5.73652 17.363 7.04928 16.0503Z" stroke="black" stroke-width="2" stroke-linecap="round" stroke-linejoin="round"/>
</svg>
