<svg width="30" height="30" viewBox="0 0 30 30" fill="none" xmlns="http://www.w3.org/2000/svg">
<path d="M18.4102 12.367C19.2974 11.4797 19.7959 10.2763 19.7959 9.02153C19.7959 7.76674 19.2974 6.56334 18.4102 5.67608C17.5229 4.78881 16.3195 4.29034 15.0647 4.29034C13.8099 4.29034 12.6065 4.78881 11.7193 5.67608C10.832 6.56334 10.3335 7.76674 10.3335 9.02153C10.3335 10.2763 10.832 11.4797 11.7193 12.367C12.6065 13.2542 13.8099 13.7527 15.0647 13.7527C16.3195 13.7527 17.5229 13.2542 18.4102 12.367Z" stroke="#3C3C3C" stroke-width="3" stroke-linecap="round" stroke-linejoin="round"/>
<path d="M9.21019 19.7261C10.7629 18.1734 12.8688 17.3011 15.0647 17.3011C17.2606 17.3011 19.3665 18.1734 20.9193 19.7261C22.472 21.2788 23.3443 23.3848 23.3443 25.5807H6.78516C6.78516 23.3848 7.65747 21.2788 9.21019 19.7261Z" stroke="#3C3C3C" stroke-width="3" stroke-linecap="round" stroke-linejoin="round"/>
</svg>
