<svg width="32" height="32" viewBox="0 0 32 32" fill="none" xmlns="http://www.w3.org/2000/svg">
<path d="M15.9987 0.958374C12.0094 0.958374 8.18349 2.54312 5.36263 5.36398C2.54177 8.18484 0.957031 12.0107 0.957031 16C0.957031 19.9893 2.54177 23.8152 5.36263 26.6361C8.18349 29.457 12.0094 31.0417 15.9987 31.0417C19.988 31.0417 23.8139 29.457 26.6348 26.6361C29.4556 23.8152 31.0404 19.9893 31.0404 16C31.0404 12.0107 29.4556 8.18484 26.6348 5.36398C23.8139 2.54312 19.988 0.958374 15.9987 0.958374V0.958374Z" fill="#039BE5"/>
<path d="M18.0355 19.9869H21.9282L22.5393 16.0325H18.0347V13.8712C18.0347 12.2285 18.5715 10.7719 20.1081 10.7719H22.5773V7.32099C22.1435 7.26241 21.226 7.13416 19.4922 7.13416C15.8719 7.13416 13.7495 9.04603 13.7495 13.4018V16.0325H10.0278V19.9869H13.7495V30.8557C14.4865 30.9665 15.233 31.0417 15.9994 31.0417C16.6921 31.0417 17.3682 30.9784 18.0355 30.8881V19.9869Z" fill="white"/>
</svg>
